<svg width="40" height="35" viewBox="0 0 40 35" fill="none" xmlns="http://www.w3.org/2000/svg">
<path d="M36.6406 0H3.35938C2.42188 0 1.6276 0.44347 0.976562 1.33041C0.325521 2.21735 0 3.24074 0 4.40058V30.5994C0 31.7593 0.325521 32.7826 0.976562 33.6696C1.6276 34.5565 2.42188 35 3.35938 35H36.6406C37.5781 35 38.3724 34.5565 39.0234 33.6696C39.6745 32.7826 40 31.7593 40 30.5994V4.40058C40 3.24074 39.6745 2.21735 39.0234 1.33041C38.3724 0.44347 37.5781 0 36.6406 0ZM33.5156 4.40058L20 14.8392L6.48438 4.40058H33.5156ZM3.35938 30.5994V7.0614L19.1406 19.4444C19.2448 19.5809 19.5312 19.6491 20 19.6491C20.4688 19.6491 20.7552 19.5809 20.8594 19.4444L36.6406 7.0614V30.5994H3.35938Z" fill="white"/>
</svg>
